<svg xmlns="http://www.w3.org/2000/svg"
 viewBox="0 0 82.000000 100.000000"
 preserveAspectRatio="xMidYMid meet">
<g transform="translate(0.000000,100.000000) scale(0.100000,-0.100000)"
fill="#000000" stroke="none">
<path d="M530 990 c-113 -15 -200 -115 -200 -231 0 -26 -12 -52 -42 -95 -56
-80 -156 -199 -212 -254 -51 -49 -55 -66 -26 -103 l20 -26 -30 -43 c-25 -35
-31 -55 -32 -95 0 -62 11 -85 56 -112 26 -16 50 -21 104 -21 66 0 74 2 109 33
42 37 84 81 172 185 106 123 205 149 241 63 19 -47 5 -78 -71 -157 -65 -66
-69 -74 -57 -93 7 -12 18 -21 24 -21 23 0 153 148 165 188 17 59 4 109 -41
154 -33 34 -43 38 -86 38 -56 0 -115 -25 -160 -66 -17 -16 -72 -77 -122 -135
-99 -116 -142 -145 -197 -135 -42 8 -85 42 -85 67 0 25 23 71 45 89 12 10 19
10 27 2 24 -24 51 -10 128 63 77 73 276 212 315 220 11 2 36 6 56 10 83 13
164 98 178 185 29 184 -95 313 -279 290z m115 -69 c76 -34 123 -116 111 -193
-15 -94 -15 -94 -157 48 -70 70 -126 131 -123 136 7 11 63 26 99 27 17 0 48
-8 70 -18z m-86 -188 c66 -70 121 -129 121 -130 0 -1 -13 -9 -30 -18 -34 -17
-106 -20 -147 -4 -62 23 -113 99 -113 169 0 44 23 110 38 110 5 0 64 -57 131
-127z m-185 -124 c10 -17 38 -43 62 -58 l43 -28 -87 -56 c-48 -31 -116 -85
-152 -121 -35 -37 -70 -66 -77 -66 -6 0 -24 15 -38 34 l-26 35 70 73 c39 40
94 106 123 146 29 39 55 72 58 72 3 0 14 -14 24 -31z"/>
<path d="M302 519 c-22 -27 -24 -59 -5 -59 4 0 24 14 43 30 34 28 35 29 15 44
-26 20 -26 20 -53 -15z"/>
</g>
</svg>
