<svg version="1.0" xmlns="http://www.w3.org/2000/svg"
 viewBox="0 0 96.000000 118.000000"
 preserveAspectRatio="xMidYMid meet">
<g transform="translate(0.000000,118.000000) scale(0.100000,-0.100000)"
fill="#000000" stroke="none">
<path d="M624 1169 c-60 -8 -82 -19 -136 -67 -54 -49 -80 -103 -86 -182 -4
-59 -10 -73 -60 -145 -73 -106 -128 -172 -228 -275 -91 -93 -89 -85 -40 -154
18 -25 18 -26 -8 -57 -42 -49 -58 -89 -59 -140 -1 -93 56 -139 173 -139 104 0
121 12 300 220 122 143 176 180 255 180 38 0 52 -5 74 -28 68 -68 45 -145 -78
-265 -61 -60 -76 -79 -65 -88 19 -16 42 0 119 83 81 88 99 119 99 178 0 135
-117 199 -249 136 -53 -25 -100 -70 -239 -231 -103 -118 -153 -155 -208 -155
-76 0 -148 52 -148 107 0 30 25 80 58 115 23 25 27 26 46 13 38 -27 59 -17
136 61 48 49 127 111 221 174 125 82 155 98 200 104 159 21 250 126 250 286 0
184 -132 293 -327 269z m151 -53 c128 -59 180 -209 116 -333 l-20 -40 -170
171 c-185 185 -183 182 -106 210 60 22 123 19 180 -8z m-107 -228 l172 -173
-23 -18 c-36 -28 -122 -50 -170 -42 -167 28 -257 202 -181 353 14 29 27 52 28
52 1 0 79 -78 174 -172z m-248 -101 c0 -44 125 -157 174 -157 11 0 -31 -32
-95 -72 -72 -46 -149 -106 -211 -165 -53 -51 -101 -93 -105 -93 -5 0 -31 22
-57 49 l-49 49 104 114 c57 63 131 153 164 201 59 84 75 100 75 74z"/>
<path d="M347 609 c-23 -31 -26 -43 -17 -54 10 -12 19 -9 60 18 l49 32 -21 23
c-29 30 -39 28 -71 -19z"/>
</g>
</svg>
