<svg version="1.0" xmlns="http://www.w3.org/2000/svg"
viewBox="0 0 119.000000 119.000000"
 preserveAspectRatio="xMidYMid meet">
<g transform="translate(0.000000,119.000000) scale(0.050000,-0.050000)"
fill="#000000" stroke="none">
<path d="M1030 2360 c-969 -110 -1368 -1335 -660 -2026 544 -531 1508 -384
1857 283 457 873 -217 1856 -1197 1743z m420 -167 c768 -205 1032 -1174 472
-1735 -649 -649 -1762 -187 -1762 732 0 676 642 1176 1290 1003z"/>
<path d="M1646 1775 c-122 -157 -124 -160 -90 -207 49 -68 60 -63 220 98 l145
146 -45 40 c-104 91 -98 93 -230 -77z"/>
<path d="M1060 1650 c-318 -101 -427 -489 -211 -746 252 -298 750 -146 804
245 44 322 -285 599 -593 501z m288 -175 c207 -119 203 -426 -8 -538 -133 -71
-284 -39 -386 82 -217 258 100 624 394 456z"/>
<path d="M1138 1313 c-60 -30 -75 -133 -28 -180 73 -73 190 -19 190 86 0 87
-81 134 -162 94z"/>
<path d="M606 733 l-165 -142 64 -66 c80 -83 64 -90 218 91 l132 155 -42 53
-43 52 -164 -143z"/>
</g>
</svg>
