<svg version="1.0" xmlns="http://www.w3.org/2000/svg"
 viewBox="0 0 32.000000 32.000000"
 preserveAspectRatio="xMidYMid meet">
<g transform="translate(0.000000,32.000000) scale(0.100000,-0.100000)"
fill="#000000" stroke="none">
<path d="M95 306 c-101 -44 -125 -178 -46 -257 65 -65 157 -65 222 0 124 124
-15 327 -176 257z m112 -7 c67 -25 111 -99 98 -165 -8 -45 -57 -100 -101 -114
-100 -33 -209 62 -190 165 12 62 82 124 143 125 12 0 34 -5 50 -11z"/>
<path d="M233 248 c-23 -30 -24 -41 -2 -21 12 12 20 25 17 28 -3 3 -10 0 -15
-7z"/>
<path d="M117 202 c-10 -10 -17 -28 -17 -40 0 -28 34 -62 60 -62 27 0 60 35
60 63 0 50 -70 76 -103 39z m78 -12 c27 -30 7 -70 -34 -70 -41 0 -59 32 -36
66 19 29 46 31 70 4z"/>
<path d="M145 171 c-7 -12 12 -24 25 -16 11 7 4 25 -10 25 -5 0 -11 -4 -15 -9z"/>
<path d="M75 90 c-10 -11 -14 -20 -8 -20 5 0 18 9 28 20 10 11 14 20 8 20 -5
0 -18 -9 -28 -20z"/>
</g>
</svg>
